<?xml version="1.0" encoding="utf-8"?>
<!-- Generator: Adobe Illustrator 15.0.2, SVG Export Plug-In  -->
<!DOCTYPE svg PUBLIC "-//W3C//DTD SVG 1.1//EN" "http://www.w3.org/Graphics/SVG/1.1/DTD/svg11.dtd" [
	<!ENTITY ns_flows "http://ns.adobe.com/Flows/1.0/">
]>
<svg version="1.1"
	 xmlns="http://www.w3.org/2000/svg" xmlns:xlink="http://www.w3.org/1999/xlink" xmlns:a="http://ns.adobe.com/AdobeSVGViewerExtensions/3.0/"
	 x="0px" y="0px" width="356px" height="183px" viewBox="-22.896 -11.035 356 183"
	 overflow="visible" enable-background="new -22.896 -11.035 356 183" xml:space="preserve">
<defs>
</defs>
<path fill-rule="evenodd" clip-rule="evenodd" fill="#FFFFFF" d="M198.435,43.403c14.11,7.085,5.481,30.699,0,40.697
	C194.74,72.953,196.995,55.134,198.435,43.403z"/>
<path fill-rule="evenodd" clip-rule="evenodd" fill="#FFFFFF" d="M198.449,43.403c-14.112,7.085-5.483,30.699,0,40.697
	C202.141,72.953,199.89,55.134,198.449,43.403z"/>
<path fill-rule="evenodd" clip-rule="evenodd" fill="#FFFFFF" d="M276.654,42.806c14.117,7.091,5.484,30.702,0,40.7
	C272.967,72.361,275.215,54.539,276.654,42.806z"/>
<path fill-rule="evenodd" clip-rule="evenodd" fill="#FFFFFF" d="M276.67,42.806c-14.113,7.091-5.479,30.702,0,40.7
	C280.367,72.361,278.115,54.539,276.67,42.806z"/>
<path fill="#FFFFFF" d="M5.984,106.854c-3.608,0-5.984-2.638-5.984-5.804c0-3.344,2.461-5.894,6.066-5.894
	c3.697,0,5.981,2.55,6.073,5.894c0,3.166-2.376,5.804-6.073,5.804H5.984z M0.616,155.849v-42.836h10.819v42.836H0.616z"/>
<path fill="#FFFFFF" d="M22.689,145.82c2.373,1.494,7.037,3.166,10.908,3.166c4.748,0,6.855-2.025,6.855-4.838
	c0-2.903-1.75-4.31-7.029-6.247c-8.361-2.814-11.786-7.387-11.786-12.486c0-7.564,6.243-13.372,16.187-13.372
	c4.746,0,8.883,1.144,11.426,2.55l-2.193,7.564c-1.762-1.056-5.279-2.462-9.062-2.462c-3.87,0-5.978,1.938-5.978,4.572
	c0,2.728,2.021,3.959,7.469,5.984c7.833,2.727,11.35,6.687,11.441,13.019c0,7.826-6.072,13.454-17.416,13.454
	c-5.191,0-9.852-1.229-13.021-2.986L22.689,145.82z"/>
<path fill="#FFFFFF" d="M93.05,145.555c0,3.87,0.183,7.652,0.708,10.294h-9.761l-0.79-4.752h-0.266
	c-2.556,3.343-7.039,5.716-12.666,5.716c-8.623,0-13.455-6.243-13.455-12.749c0-10.733,9.587-16.275,25.41-16.188v-0.701
	c0-2.815-1.137-7.479-8.701-7.479c-4.219,0-8.619,1.321-11.523,3.166l-2.111-7.033c3.17-1.937,8.709-3.785,15.48-3.785
	c13.723,0,17.675,8.711,17.675,18.121V145.555z M82.496,134.913c-7.643-0.086-14.948,1.494-14.948,8.003
	c0,4.225,2.728,6.155,6.161,6.155c4.396,0,7.473-2.812,8.521-5.893c0.266-0.787,0.266-1.58,0.266-2.373V134.913z"/>
<path fill="#FFFFFF" d="M111.613,104.305v9.324h12.048v3.429h-12.048v27.444c0,5.362,1.671,8.705,6.154,8.705
	c2.203,0,3.783-0.262,4.841-0.616l0.524,3.17c-1.399,0.524-3.342,0.964-5.889,0.964c-3.084,0-5.631-0.964-7.217-2.901
	c-1.932-2.199-2.636-5.804-2.636-10.114v-26.651h-7.128v-3.429h7.128v-7.741L111.613,104.305z"/>
<path fill="#FFFFFF" d="M148.291,156.812c-10.91,0-19.354-8.531-19.354-21.726c0-14.425,9.498-22.428,19.967-22.428
	c11.699,0,19.611,8.797,19.611,21.729c0,15.653-10.818,22.425-20.137,22.425H148.291z M148.55,153.293
	c8.8,0,15.748-7.915,15.748-18.734c0-7.738-4.31-18.38-15.485-18.38c-10.816,0-15.653,9.59-15.653,18.648
	c0,10.551,6.686,18.466,15.306,18.466H148.55z"/>
<path fill="#FFFFFF" d="M196.656,156.812c-12.045,0-21.455-8.266-21.455-22.077c0-14.073,9.236-22.692,22.169-22.692
	c12.749,0,21.284,8.974,21.284,21.991c0,15.745-11.084,22.778-21.906,22.778H196.656z M197.014,148.986
	c6.158,0,10.467-5.981,10.467-14.689c0-6.687-2.991-14.428-10.382-14.428c-7.646,0-10.728,7.479-10.728,14.604
	c0,8.266,4.133,14.513,10.554,14.513H197.014z"/>
<path fill="#FFFFFF" d="M233.337,113.013l4.401,19.436c1.053,4.575,2.02,9.239,2.815,13.896h0.174
	c0.878-4.569,2.284-9.406,3.429-13.805l5.633-19.527h8.791l5.368,18.996c1.32,5.015,2.464,9.679,3.431,14.336h0.174
	c0.619-4.657,1.672-9.321,2.816-14.336l4.746-18.996h10.647l-13.46,42.836h-10.026l-5.1-17.419
	c-1.323-4.487-2.284-8.531-3.255-13.723h-0.18c-0.967,5.279-2.021,9.498-3.252,13.723l-5.453,17.419h-10.12l-12.661-42.836H233.337z
	"/>
<path fill="#FFFFFF" d="M292.705,93.31h10.821v62.539h-10.821V93.31z"/>
<polygon fill-rule="evenodd" clip-rule="evenodd" fill="#FFFFFF" points="246.672,55.231 238.602,72.52 230.54,55.231 "/>
<polygon fill-rule="evenodd" clip-rule="evenodd" fill="#FFFFFF" points="210.235,12.773 199.526,28.18 203.096,0 "/>
<polygon fill-rule="evenodd" clip-rule="evenodd" fill="#FFFFFF" points="266.41,12.773 277.119,28.18 273.547,0 "/>
<polygon fill-rule="evenodd" clip-rule="evenodd" fill="#FFFFFF" points="257.009,12.722 238.409,23.34 219.554,12.643 "/>
<circle fill-rule="evenodd" clip-rule="evenodd" fill="#FFFFFF" cx="222.26" cy="38.7" r="8.267"/>
<path fill-rule="evenodd" clip-rule="evenodd" fill="#FFFFFF" d="M261.713,38.321c0,4.566-3.7,8.267-8.267,8.267
	c-4.563,0-8.269-3.7-8.269-8.267c0-4.562,3.705-8.263,8.269-8.263C258.013,30.059,261.713,33.759,261.713,38.321z"/>
</svg>
